M48
;DRILL file {KiCad (5.0.2)-1} date 7/1/2020 2:39:26 PM
;FORMAT={-:-/ absolute / inch / decimal}
FMAT,2
INCH,TZ
T1C0.0157
T2C0.0276
T3C0.0394
%
G90
G05
T1
X5.1Y-4.3
X5.15Y-4.45
T2
X4.9107Y-3.784
X5.1107Y-3.784
X4.9107Y-3.484
X5.1107Y-3.484
X4.9107Y-3.684
X5.1107Y-3.684
X4.9107Y-3.584
X5.1107Y-3.584
T3
X4.7Y-3.7
X4.7Y-3.8
X4.7Y-3.9
X4.7Y-4.
X4.7Y-4.1
X4.7Y-4.2
X4.7Y-4.3
X4.7Y-4.4
X4.7Y-4.5
X5.3Y-3.3
X5.3Y-3.4
X4.6Y-3.6
X4.6Y-2.8
X4.7Y-2.8
X4.8Y-2.8
X4.9Y-2.8
X5.Y-2.8
X5.1Y-2.8
X5.2Y-2.8
X5.4Y-4.3
X5.4Y-4.4
X4.7Y-3.4
X5.1Y-4.6
X5.2Y-4.6
X5.45Y-2.95
X5.35Y-2.95
X5.3Y-3.8
X4.6Y-4.8
X4.6Y-4.9
X4.6Y-5.
X4.6Y-5.1
X4.6Y-5.2
X4.6Y-5.3
X4.6Y-5.4
X4.6Y-5.5
X5.45Y-2.8
X5.35Y-2.8
X5.4Y-3.9
X5.3Y-4.2
X5.3Y-4.3
X5.3Y-4.4
X5.3Y-4.5
X5.3Y-4.6
X5.4Y-4.9
X5.4Y-5.
X5.4Y-5.1
X5.4Y-5.2
X5.4Y-5.3
X5.4Y-5.4
X5.3Y-3.9
X4.6Y-4.3
X4.6Y-4.4
X4.6Y-4.5
X5.3Y-4.
X4.6Y-3.4
T0
M30
