G04 #@! TF.GenerationSoftware,KiCad,Pcbnew,(5.0.2)-1*
G04 #@! TF.CreationDate,2020-07-01T14:38:25-04:00*
G04 #@! TF.ProjectId,PCB2,50434232-2e6b-4696-9361-645f70636258,rev?*
G04 #@! TF.SameCoordinates,Original*
G04 #@! TF.FileFunction,Soldermask,Bot*
G04 #@! TF.FilePolarity,Negative*
%FSLAX46Y46*%
G04 Gerber Fmt 4.6, Leading zero omitted, Abs format (unit mm)*
G04 Created by KiCad (PCBNEW (5.0.2)-1) date 7/1/2020 2:38:25 PM*
%MOMM*%
%LPD*%
G01*
G04 APERTURE LIST*
%ADD10C,0.100000*%
G04 APERTURE END LIST*
D10*
G36*
X116950442Y-138805518D02*
X117016627Y-138812037D01*
X117129853Y-138846384D01*
X117186467Y-138863557D01*
X117325087Y-138937652D01*
X117342991Y-138947222D01*
X117378729Y-138976552D01*
X117480186Y-139059814D01*
X117563448Y-139161271D01*
X117592778Y-139197009D01*
X117592779Y-139197011D01*
X117676443Y-139353533D01*
X117676443Y-139353534D01*
X117727963Y-139523373D01*
X117745359Y-139700000D01*
X117727963Y-139876627D01*
X117693616Y-139989853D01*
X117676443Y-140046467D01*
X117602348Y-140185087D01*
X117592778Y-140202991D01*
X117563448Y-140238729D01*
X117480186Y-140340186D01*
X117378729Y-140423448D01*
X117342991Y-140452778D01*
X117342989Y-140452779D01*
X117186467Y-140536443D01*
X117129853Y-140553616D01*
X117016627Y-140587963D01*
X116950442Y-140594482D01*
X116884260Y-140601000D01*
X116795740Y-140601000D01*
X116729558Y-140594482D01*
X116663373Y-140587963D01*
X116550147Y-140553616D01*
X116493533Y-140536443D01*
X116337011Y-140452779D01*
X116337009Y-140452778D01*
X116301271Y-140423448D01*
X116199814Y-140340186D01*
X116116552Y-140238729D01*
X116087222Y-140202991D01*
X116077652Y-140185087D01*
X116003557Y-140046467D01*
X115986384Y-139989853D01*
X115952037Y-139876627D01*
X115934641Y-139700000D01*
X115952037Y-139523373D01*
X116003557Y-139353534D01*
X116003557Y-139353533D01*
X116087221Y-139197011D01*
X116087222Y-139197009D01*
X116116552Y-139161271D01*
X116199814Y-139059814D01*
X116301271Y-138976552D01*
X116337009Y-138947222D01*
X116354913Y-138937652D01*
X116493533Y-138863557D01*
X116550147Y-138846384D01*
X116663373Y-138812037D01*
X116729558Y-138805518D01*
X116795740Y-138799000D01*
X116884260Y-138799000D01*
X116950442Y-138805518D01*
X116950442Y-138805518D01*
G37*
G36*
X137270443Y-136265519D02*
X137336627Y-136272037D01*
X137449853Y-136306384D01*
X137506467Y-136323557D01*
X137645087Y-136397652D01*
X137662991Y-136407222D01*
X137698729Y-136436552D01*
X137800186Y-136519814D01*
X137883448Y-136621271D01*
X137912778Y-136657009D01*
X137912779Y-136657011D01*
X137996443Y-136813533D01*
X137996443Y-136813534D01*
X138047963Y-136983373D01*
X138065359Y-137160000D01*
X138047963Y-137336627D01*
X138013616Y-137449853D01*
X137996443Y-137506467D01*
X137922348Y-137645087D01*
X137912778Y-137662991D01*
X137883448Y-137698729D01*
X137800186Y-137800186D01*
X137698729Y-137883448D01*
X137662991Y-137912778D01*
X137662989Y-137912779D01*
X137506467Y-137996443D01*
X137449853Y-138013616D01*
X137336627Y-138047963D01*
X137270442Y-138054482D01*
X137204260Y-138061000D01*
X137115740Y-138061000D01*
X137049558Y-138054482D01*
X136983373Y-138047963D01*
X136870147Y-138013616D01*
X136813533Y-137996443D01*
X136657011Y-137912779D01*
X136657009Y-137912778D01*
X136621271Y-137883448D01*
X136519814Y-137800186D01*
X136436552Y-137698729D01*
X136407222Y-137662991D01*
X136397652Y-137645087D01*
X136323557Y-137506467D01*
X136306384Y-137449853D01*
X136272037Y-137336627D01*
X136254641Y-137160000D01*
X136272037Y-136983373D01*
X136323557Y-136813534D01*
X136323557Y-136813533D01*
X136407221Y-136657011D01*
X136407222Y-136657009D01*
X136436552Y-136621271D01*
X136519814Y-136519814D01*
X136621271Y-136436552D01*
X136657009Y-136407222D01*
X136674913Y-136397652D01*
X136813533Y-136323557D01*
X136870147Y-136306384D01*
X136983373Y-136272037D01*
X137049557Y-136265519D01*
X137115740Y-136259000D01*
X137204260Y-136259000D01*
X137270443Y-136265519D01*
X137270443Y-136265519D01*
G37*
G36*
X116950443Y-136265519D02*
X117016627Y-136272037D01*
X117129853Y-136306384D01*
X117186467Y-136323557D01*
X117325087Y-136397652D01*
X117342991Y-136407222D01*
X117378729Y-136436552D01*
X117480186Y-136519814D01*
X117563448Y-136621271D01*
X117592778Y-136657009D01*
X117592779Y-136657011D01*
X117676443Y-136813533D01*
X117676443Y-136813534D01*
X117727963Y-136983373D01*
X117745359Y-137160000D01*
X117727963Y-137336627D01*
X117693616Y-137449853D01*
X117676443Y-137506467D01*
X117602348Y-137645087D01*
X117592778Y-137662991D01*
X117563448Y-137698729D01*
X117480186Y-137800186D01*
X117378729Y-137883448D01*
X117342991Y-137912778D01*
X117342989Y-137912779D01*
X117186467Y-137996443D01*
X117129853Y-138013616D01*
X117016627Y-138047963D01*
X116950442Y-138054482D01*
X116884260Y-138061000D01*
X116795740Y-138061000D01*
X116729558Y-138054482D01*
X116663373Y-138047963D01*
X116550147Y-138013616D01*
X116493533Y-137996443D01*
X116337011Y-137912779D01*
X116337009Y-137912778D01*
X116301271Y-137883448D01*
X116199814Y-137800186D01*
X116116552Y-137698729D01*
X116087222Y-137662991D01*
X116077652Y-137645087D01*
X116003557Y-137506467D01*
X115986384Y-137449853D01*
X115952037Y-137336627D01*
X115934641Y-137160000D01*
X115952037Y-136983373D01*
X116003557Y-136813534D01*
X116003557Y-136813533D01*
X116087221Y-136657011D01*
X116087222Y-136657009D01*
X116116552Y-136621271D01*
X116199814Y-136519814D01*
X116301271Y-136436552D01*
X116337009Y-136407222D01*
X116354913Y-136397652D01*
X116493533Y-136323557D01*
X116550147Y-136306384D01*
X116663373Y-136272037D01*
X116729557Y-136265519D01*
X116795740Y-136259000D01*
X116884260Y-136259000D01*
X116950443Y-136265519D01*
X116950443Y-136265519D01*
G37*
G36*
X137270443Y-133725519D02*
X137336627Y-133732037D01*
X137449853Y-133766384D01*
X137506467Y-133783557D01*
X137645087Y-133857652D01*
X137662991Y-133867222D01*
X137698729Y-133896552D01*
X137800186Y-133979814D01*
X137883448Y-134081271D01*
X137912778Y-134117009D01*
X137912779Y-134117011D01*
X137996443Y-134273533D01*
X137996443Y-134273534D01*
X138047963Y-134443373D01*
X138065359Y-134620000D01*
X138047963Y-134796627D01*
X138013616Y-134909853D01*
X137996443Y-134966467D01*
X137922348Y-135105087D01*
X137912778Y-135122991D01*
X137883448Y-135158729D01*
X137800186Y-135260186D01*
X137698729Y-135343448D01*
X137662991Y-135372778D01*
X137662989Y-135372779D01*
X137506467Y-135456443D01*
X137449853Y-135473616D01*
X137336627Y-135507963D01*
X137270443Y-135514481D01*
X137204260Y-135521000D01*
X137115740Y-135521000D01*
X137049557Y-135514481D01*
X136983373Y-135507963D01*
X136870147Y-135473616D01*
X136813533Y-135456443D01*
X136657011Y-135372779D01*
X136657009Y-135372778D01*
X136621271Y-135343448D01*
X136519814Y-135260186D01*
X136436552Y-135158729D01*
X136407222Y-135122991D01*
X136397652Y-135105087D01*
X136323557Y-134966467D01*
X136306384Y-134909853D01*
X136272037Y-134796627D01*
X136254641Y-134620000D01*
X136272037Y-134443373D01*
X136323557Y-134273534D01*
X136323557Y-134273533D01*
X136407221Y-134117011D01*
X136407222Y-134117009D01*
X136436552Y-134081271D01*
X136519814Y-133979814D01*
X136621271Y-133896552D01*
X136657009Y-133867222D01*
X136674913Y-133857652D01*
X136813533Y-133783557D01*
X136870147Y-133766384D01*
X136983373Y-133732037D01*
X137049557Y-133725519D01*
X137115740Y-133719000D01*
X137204260Y-133719000D01*
X137270443Y-133725519D01*
X137270443Y-133725519D01*
G37*
G36*
X116950443Y-133725519D02*
X117016627Y-133732037D01*
X117129853Y-133766384D01*
X117186467Y-133783557D01*
X117325087Y-133857652D01*
X117342991Y-133867222D01*
X117378729Y-133896552D01*
X117480186Y-133979814D01*
X117563448Y-134081271D01*
X117592778Y-134117009D01*
X117592779Y-134117011D01*
X117676443Y-134273533D01*
X117676443Y-134273534D01*
X117727963Y-134443373D01*
X117745359Y-134620000D01*
X117727963Y-134796627D01*
X117693616Y-134909853D01*
X117676443Y-134966467D01*
X117602348Y-135105087D01*
X117592778Y-135122991D01*
X117563448Y-135158729D01*
X117480186Y-135260186D01*
X117378729Y-135343448D01*
X117342991Y-135372778D01*
X117342989Y-135372779D01*
X117186467Y-135456443D01*
X117129853Y-135473616D01*
X117016627Y-135507963D01*
X116950443Y-135514481D01*
X116884260Y-135521000D01*
X116795740Y-135521000D01*
X116729557Y-135514481D01*
X116663373Y-135507963D01*
X116550147Y-135473616D01*
X116493533Y-135456443D01*
X116337011Y-135372779D01*
X116337009Y-135372778D01*
X116301271Y-135343448D01*
X116199814Y-135260186D01*
X116116552Y-135158729D01*
X116087222Y-135122991D01*
X116077652Y-135105087D01*
X116003557Y-134966467D01*
X115986384Y-134909853D01*
X115952037Y-134796627D01*
X115934641Y-134620000D01*
X115952037Y-134443373D01*
X116003557Y-134273534D01*
X116003557Y-134273533D01*
X116087221Y-134117011D01*
X116087222Y-134117009D01*
X116116552Y-134081271D01*
X116199814Y-133979814D01*
X116301271Y-133896552D01*
X116337009Y-133867222D01*
X116354913Y-133857652D01*
X116493533Y-133783557D01*
X116550147Y-133766384D01*
X116663373Y-133732037D01*
X116729557Y-133725519D01*
X116795740Y-133719000D01*
X116884260Y-133719000D01*
X116950443Y-133725519D01*
X116950443Y-133725519D01*
G37*
G36*
X116950442Y-131185518D02*
X117016627Y-131192037D01*
X117129853Y-131226384D01*
X117186467Y-131243557D01*
X117325087Y-131317652D01*
X117342991Y-131327222D01*
X117378729Y-131356552D01*
X117480186Y-131439814D01*
X117563448Y-131541271D01*
X117592778Y-131577009D01*
X117592779Y-131577011D01*
X117676443Y-131733533D01*
X117676443Y-131733534D01*
X117727963Y-131903373D01*
X117745359Y-132080000D01*
X117727963Y-132256627D01*
X117693616Y-132369853D01*
X117676443Y-132426467D01*
X117602348Y-132565087D01*
X117592778Y-132582991D01*
X117563448Y-132618729D01*
X117480186Y-132720186D01*
X117378729Y-132803448D01*
X117342991Y-132832778D01*
X117342989Y-132832779D01*
X117186467Y-132916443D01*
X117129853Y-132933616D01*
X117016627Y-132967963D01*
X116950443Y-132974481D01*
X116884260Y-132981000D01*
X116795740Y-132981000D01*
X116729557Y-132974481D01*
X116663373Y-132967963D01*
X116550147Y-132933616D01*
X116493533Y-132916443D01*
X116337011Y-132832779D01*
X116337009Y-132832778D01*
X116301271Y-132803448D01*
X116199814Y-132720186D01*
X116116552Y-132618729D01*
X116087222Y-132582991D01*
X116077652Y-132565087D01*
X116003557Y-132426467D01*
X115986384Y-132369853D01*
X115952037Y-132256627D01*
X115934641Y-132080000D01*
X115952037Y-131903373D01*
X116003557Y-131733534D01*
X116003557Y-131733533D01*
X116087221Y-131577011D01*
X116087222Y-131577009D01*
X116116552Y-131541271D01*
X116199814Y-131439814D01*
X116301271Y-131356552D01*
X116337009Y-131327222D01*
X116354913Y-131317652D01*
X116493533Y-131243557D01*
X116550147Y-131226384D01*
X116663373Y-131192037D01*
X116729558Y-131185518D01*
X116795740Y-131179000D01*
X116884260Y-131179000D01*
X116950442Y-131185518D01*
X116950442Y-131185518D01*
G37*
G36*
X137270442Y-131185518D02*
X137336627Y-131192037D01*
X137449853Y-131226384D01*
X137506467Y-131243557D01*
X137645087Y-131317652D01*
X137662991Y-131327222D01*
X137698729Y-131356552D01*
X137800186Y-131439814D01*
X137883448Y-131541271D01*
X137912778Y-131577009D01*
X137912779Y-131577011D01*
X137996443Y-131733533D01*
X137996443Y-131733534D01*
X138047963Y-131903373D01*
X138065359Y-132080000D01*
X138047963Y-132256627D01*
X138013616Y-132369853D01*
X137996443Y-132426467D01*
X137922348Y-132565087D01*
X137912778Y-132582991D01*
X137883448Y-132618729D01*
X137800186Y-132720186D01*
X137698729Y-132803448D01*
X137662991Y-132832778D01*
X137662989Y-132832779D01*
X137506467Y-132916443D01*
X137449853Y-132933616D01*
X137336627Y-132967963D01*
X137270443Y-132974481D01*
X137204260Y-132981000D01*
X137115740Y-132981000D01*
X137049557Y-132974481D01*
X136983373Y-132967963D01*
X136870147Y-132933616D01*
X136813533Y-132916443D01*
X136657011Y-132832779D01*
X136657009Y-132832778D01*
X136621271Y-132803448D01*
X136519814Y-132720186D01*
X136436552Y-132618729D01*
X136407222Y-132582991D01*
X136397652Y-132565087D01*
X136323557Y-132426467D01*
X136306384Y-132369853D01*
X136272037Y-132256627D01*
X136254641Y-132080000D01*
X136272037Y-131903373D01*
X136323557Y-131733534D01*
X136323557Y-131733533D01*
X136407221Y-131577011D01*
X136407222Y-131577009D01*
X136436552Y-131541271D01*
X136519814Y-131439814D01*
X136621271Y-131356552D01*
X136657009Y-131327222D01*
X136674913Y-131317652D01*
X136813533Y-131243557D01*
X136870147Y-131226384D01*
X136983373Y-131192037D01*
X137049558Y-131185518D01*
X137115740Y-131179000D01*
X137204260Y-131179000D01*
X137270442Y-131185518D01*
X137270442Y-131185518D01*
G37*
G36*
X137270443Y-128645519D02*
X137336627Y-128652037D01*
X137449853Y-128686384D01*
X137506467Y-128703557D01*
X137645087Y-128777652D01*
X137662991Y-128787222D01*
X137698729Y-128816552D01*
X137800186Y-128899814D01*
X137883448Y-129001271D01*
X137912778Y-129037009D01*
X137912779Y-129037011D01*
X137996443Y-129193533D01*
X137996443Y-129193534D01*
X138047963Y-129363373D01*
X138065359Y-129540000D01*
X138047963Y-129716627D01*
X138013616Y-129829853D01*
X137996443Y-129886467D01*
X137922348Y-130025087D01*
X137912778Y-130042991D01*
X137883448Y-130078729D01*
X137800186Y-130180186D01*
X137698729Y-130263448D01*
X137662991Y-130292778D01*
X137662989Y-130292779D01*
X137506467Y-130376443D01*
X137449853Y-130393616D01*
X137336627Y-130427963D01*
X137270443Y-130434481D01*
X137204260Y-130441000D01*
X137115740Y-130441000D01*
X137049557Y-130434481D01*
X136983373Y-130427963D01*
X136870147Y-130393616D01*
X136813533Y-130376443D01*
X136657011Y-130292779D01*
X136657009Y-130292778D01*
X136621271Y-130263448D01*
X136519814Y-130180186D01*
X136436552Y-130078729D01*
X136407222Y-130042991D01*
X136397652Y-130025087D01*
X136323557Y-129886467D01*
X136306384Y-129829853D01*
X136272037Y-129716627D01*
X136254641Y-129540000D01*
X136272037Y-129363373D01*
X136323557Y-129193534D01*
X136323557Y-129193533D01*
X136407221Y-129037011D01*
X136407222Y-129037009D01*
X136436552Y-129001271D01*
X136519814Y-128899814D01*
X136621271Y-128816552D01*
X136657009Y-128787222D01*
X136674913Y-128777652D01*
X136813533Y-128703557D01*
X136870147Y-128686384D01*
X136983373Y-128652037D01*
X137049557Y-128645519D01*
X137115740Y-128639000D01*
X137204260Y-128639000D01*
X137270443Y-128645519D01*
X137270443Y-128645519D01*
G37*
G36*
X116950443Y-128645519D02*
X117016627Y-128652037D01*
X117129853Y-128686384D01*
X117186467Y-128703557D01*
X117325087Y-128777652D01*
X117342991Y-128787222D01*
X117378729Y-128816552D01*
X117480186Y-128899814D01*
X117563448Y-129001271D01*
X117592778Y-129037009D01*
X117592779Y-129037011D01*
X117676443Y-129193533D01*
X117676443Y-129193534D01*
X117727963Y-129363373D01*
X117745359Y-129540000D01*
X117727963Y-129716627D01*
X117693616Y-129829853D01*
X117676443Y-129886467D01*
X117602348Y-130025087D01*
X117592778Y-130042991D01*
X117563448Y-130078729D01*
X117480186Y-130180186D01*
X117378729Y-130263448D01*
X117342991Y-130292778D01*
X117342989Y-130292779D01*
X117186467Y-130376443D01*
X117129853Y-130393616D01*
X117016627Y-130427963D01*
X116950443Y-130434481D01*
X116884260Y-130441000D01*
X116795740Y-130441000D01*
X116729557Y-130434481D01*
X116663373Y-130427963D01*
X116550147Y-130393616D01*
X116493533Y-130376443D01*
X116337011Y-130292779D01*
X116337009Y-130292778D01*
X116301271Y-130263448D01*
X116199814Y-130180186D01*
X116116552Y-130078729D01*
X116087222Y-130042991D01*
X116077652Y-130025087D01*
X116003557Y-129886467D01*
X115986384Y-129829853D01*
X115952037Y-129716627D01*
X115934641Y-129540000D01*
X115952037Y-129363373D01*
X116003557Y-129193534D01*
X116003557Y-129193533D01*
X116087221Y-129037011D01*
X116087222Y-129037009D01*
X116116552Y-129001271D01*
X116199814Y-128899814D01*
X116301271Y-128816552D01*
X116337009Y-128787222D01*
X116354913Y-128777652D01*
X116493533Y-128703557D01*
X116550147Y-128686384D01*
X116663373Y-128652037D01*
X116729557Y-128645519D01*
X116795740Y-128639000D01*
X116884260Y-128639000D01*
X116950443Y-128645519D01*
X116950443Y-128645519D01*
G37*
G36*
X116950443Y-126105519D02*
X117016627Y-126112037D01*
X117129853Y-126146384D01*
X117186467Y-126163557D01*
X117325087Y-126237652D01*
X117342991Y-126247222D01*
X117378729Y-126276552D01*
X117480186Y-126359814D01*
X117563448Y-126461271D01*
X117592778Y-126497009D01*
X117592779Y-126497011D01*
X117676443Y-126653533D01*
X117676443Y-126653534D01*
X117727963Y-126823373D01*
X117745359Y-127000000D01*
X117727963Y-127176627D01*
X117693616Y-127289853D01*
X117676443Y-127346467D01*
X117602348Y-127485087D01*
X117592778Y-127502991D01*
X117563448Y-127538729D01*
X117480186Y-127640186D01*
X117378729Y-127723448D01*
X117342991Y-127752778D01*
X117342989Y-127752779D01*
X117186467Y-127836443D01*
X117129853Y-127853616D01*
X117016627Y-127887963D01*
X116950442Y-127894482D01*
X116884260Y-127901000D01*
X116795740Y-127901000D01*
X116729558Y-127894482D01*
X116663373Y-127887963D01*
X116550147Y-127853616D01*
X116493533Y-127836443D01*
X116337011Y-127752779D01*
X116337009Y-127752778D01*
X116301271Y-127723448D01*
X116199814Y-127640186D01*
X116116552Y-127538729D01*
X116087222Y-127502991D01*
X116077652Y-127485087D01*
X116003557Y-127346467D01*
X115986384Y-127289853D01*
X115952037Y-127176627D01*
X115934641Y-127000000D01*
X115952037Y-126823373D01*
X116003557Y-126653534D01*
X116003557Y-126653533D01*
X116087221Y-126497011D01*
X116087222Y-126497009D01*
X116116552Y-126461271D01*
X116199814Y-126359814D01*
X116301271Y-126276552D01*
X116337009Y-126247222D01*
X116354913Y-126237652D01*
X116493533Y-126163557D01*
X116550147Y-126146384D01*
X116663373Y-126112037D01*
X116729557Y-126105519D01*
X116795740Y-126099000D01*
X116884260Y-126099000D01*
X116950443Y-126105519D01*
X116950443Y-126105519D01*
G37*
G36*
X137270443Y-126105519D02*
X137336627Y-126112037D01*
X137449853Y-126146384D01*
X137506467Y-126163557D01*
X137645087Y-126237652D01*
X137662991Y-126247222D01*
X137698729Y-126276552D01*
X137800186Y-126359814D01*
X137883448Y-126461271D01*
X137912778Y-126497009D01*
X137912779Y-126497011D01*
X137996443Y-126653533D01*
X137996443Y-126653534D01*
X138047963Y-126823373D01*
X138065359Y-127000000D01*
X138047963Y-127176627D01*
X138013616Y-127289853D01*
X137996443Y-127346467D01*
X137922348Y-127485087D01*
X137912778Y-127502991D01*
X137883448Y-127538729D01*
X137800186Y-127640186D01*
X137698729Y-127723448D01*
X137662991Y-127752778D01*
X137662989Y-127752779D01*
X137506467Y-127836443D01*
X137449853Y-127853616D01*
X137336627Y-127887963D01*
X137270442Y-127894482D01*
X137204260Y-127901000D01*
X137115740Y-127901000D01*
X137049558Y-127894482D01*
X136983373Y-127887963D01*
X136870147Y-127853616D01*
X136813533Y-127836443D01*
X136657011Y-127752779D01*
X136657009Y-127752778D01*
X136621271Y-127723448D01*
X136519814Y-127640186D01*
X136436552Y-127538729D01*
X136407222Y-127502991D01*
X136397652Y-127485087D01*
X136323557Y-127346467D01*
X136306384Y-127289853D01*
X136272037Y-127176627D01*
X136254641Y-127000000D01*
X136272037Y-126823373D01*
X136323557Y-126653534D01*
X136323557Y-126653533D01*
X136407221Y-126497011D01*
X136407222Y-126497009D01*
X136436552Y-126461271D01*
X136519814Y-126359814D01*
X136621271Y-126276552D01*
X136657009Y-126247222D01*
X136674913Y-126237652D01*
X136813533Y-126163557D01*
X136870147Y-126146384D01*
X136983373Y-126112037D01*
X137049557Y-126105519D01*
X137115740Y-126099000D01*
X137204260Y-126099000D01*
X137270443Y-126105519D01*
X137270443Y-126105519D01*
G37*
G36*
X138061000Y-125361000D02*
X136259000Y-125361000D01*
X136259000Y-123559000D01*
X138061000Y-123559000D01*
X138061000Y-125361000D01*
X138061000Y-125361000D01*
G37*
G36*
X116950442Y-123565518D02*
X117016627Y-123572037D01*
X117129853Y-123606384D01*
X117186467Y-123623557D01*
X117325087Y-123697652D01*
X117342991Y-123707222D01*
X117378729Y-123736552D01*
X117480186Y-123819814D01*
X117563448Y-123921271D01*
X117592778Y-123957009D01*
X117592779Y-123957011D01*
X117676443Y-124113533D01*
X117676443Y-124113534D01*
X117727963Y-124283373D01*
X117745359Y-124460000D01*
X117727963Y-124636627D01*
X117693616Y-124749853D01*
X117676443Y-124806467D01*
X117602348Y-124945087D01*
X117592778Y-124962991D01*
X117563448Y-124998729D01*
X117480186Y-125100186D01*
X117378729Y-125183448D01*
X117342991Y-125212778D01*
X117342989Y-125212779D01*
X117186467Y-125296443D01*
X117129853Y-125313616D01*
X117016627Y-125347963D01*
X116950442Y-125354482D01*
X116884260Y-125361000D01*
X116795740Y-125361000D01*
X116729558Y-125354482D01*
X116663373Y-125347963D01*
X116550147Y-125313616D01*
X116493533Y-125296443D01*
X116337011Y-125212779D01*
X116337009Y-125212778D01*
X116301271Y-125183448D01*
X116199814Y-125100186D01*
X116116552Y-124998729D01*
X116087222Y-124962991D01*
X116077652Y-124945087D01*
X116003557Y-124806467D01*
X115986384Y-124749853D01*
X115952037Y-124636627D01*
X115934641Y-124460000D01*
X115952037Y-124283373D01*
X116003557Y-124113534D01*
X116003557Y-124113533D01*
X116087221Y-123957011D01*
X116087222Y-123957009D01*
X116116552Y-123921271D01*
X116199814Y-123819814D01*
X116301271Y-123736552D01*
X116337009Y-123707222D01*
X116354913Y-123697652D01*
X116493533Y-123623557D01*
X116550147Y-123606384D01*
X116663373Y-123572037D01*
X116729558Y-123565518D01*
X116795740Y-123559000D01*
X116884260Y-123559000D01*
X116950442Y-123565518D01*
X116950442Y-123565518D01*
G37*
G36*
X117741000Y-122821000D02*
X115939000Y-122821000D01*
X115939000Y-121019000D01*
X117741000Y-121019000D01*
X117741000Y-122821000D01*
X117741000Y-122821000D01*
G37*
G36*
X132190442Y-115945518D02*
X132256627Y-115952037D01*
X132369853Y-115986384D01*
X132426467Y-116003557D01*
X132565087Y-116077652D01*
X132582991Y-116087222D01*
X132618729Y-116116552D01*
X132720186Y-116199814D01*
X132803448Y-116301271D01*
X132832778Y-116337009D01*
X132832779Y-116337011D01*
X132916443Y-116493533D01*
X132916443Y-116493534D01*
X132967963Y-116663373D01*
X132985359Y-116840000D01*
X132967963Y-117016627D01*
X132933616Y-117129853D01*
X132916443Y-117186467D01*
X132842348Y-117325087D01*
X132832778Y-117342991D01*
X132803448Y-117378729D01*
X132720186Y-117480186D01*
X132618729Y-117563448D01*
X132582991Y-117592778D01*
X132582989Y-117592779D01*
X132426467Y-117676443D01*
X132369853Y-117693616D01*
X132256627Y-117727963D01*
X132190442Y-117734482D01*
X132124260Y-117741000D01*
X132035740Y-117741000D01*
X131969558Y-117734482D01*
X131903373Y-117727963D01*
X131790147Y-117693616D01*
X131733533Y-117676443D01*
X131577011Y-117592779D01*
X131577009Y-117592778D01*
X131541271Y-117563448D01*
X131439814Y-117480186D01*
X131356552Y-117378729D01*
X131327222Y-117342991D01*
X131317652Y-117325087D01*
X131243557Y-117186467D01*
X131226384Y-117129853D01*
X131192037Y-117016627D01*
X131174641Y-116840000D01*
X131192037Y-116663373D01*
X131243557Y-116493534D01*
X131243557Y-116493533D01*
X131327221Y-116337011D01*
X131327222Y-116337009D01*
X131356552Y-116301271D01*
X131439814Y-116199814D01*
X131541271Y-116116552D01*
X131577009Y-116087222D01*
X131594913Y-116077652D01*
X131733533Y-116003557D01*
X131790147Y-115986384D01*
X131903373Y-115952037D01*
X131969558Y-115945518D01*
X132035740Y-115939000D01*
X132124260Y-115939000D01*
X132190442Y-115945518D01*
X132190442Y-115945518D01*
G37*
G36*
X130441000Y-117741000D02*
X128639000Y-117741000D01*
X128639000Y-115939000D01*
X130441000Y-115939000D01*
X130441000Y-117741000D01*
X130441000Y-117741000D01*
G37*
G36*
X135521000Y-117741000D02*
X133719000Y-117741000D01*
X133719000Y-115939000D01*
X135521000Y-115939000D01*
X135521000Y-117741000D01*
X135521000Y-117741000D01*
G37*
G36*
X134730443Y-113405519D02*
X134796627Y-113412037D01*
X134909853Y-113446384D01*
X134966467Y-113463557D01*
X135105087Y-113537652D01*
X135122991Y-113547222D01*
X135158729Y-113576552D01*
X135260186Y-113659814D01*
X135343448Y-113761271D01*
X135372778Y-113797009D01*
X135372779Y-113797011D01*
X135456443Y-113953533D01*
X135456443Y-113953534D01*
X135507963Y-114123373D01*
X135525359Y-114300000D01*
X135507963Y-114476627D01*
X135473616Y-114589853D01*
X135456443Y-114646467D01*
X135382348Y-114785087D01*
X135372778Y-114802991D01*
X135343448Y-114838729D01*
X135260186Y-114940186D01*
X135158729Y-115023448D01*
X135122991Y-115052778D01*
X135122989Y-115052779D01*
X134966467Y-115136443D01*
X134909853Y-115153616D01*
X134796627Y-115187963D01*
X134730442Y-115194482D01*
X134664260Y-115201000D01*
X134575740Y-115201000D01*
X134509558Y-115194482D01*
X134443373Y-115187963D01*
X134330147Y-115153616D01*
X134273533Y-115136443D01*
X134117011Y-115052779D01*
X134117009Y-115052778D01*
X134081271Y-115023448D01*
X133979814Y-114940186D01*
X133896552Y-114838729D01*
X133867222Y-114802991D01*
X133857652Y-114785087D01*
X133783557Y-114646467D01*
X133766384Y-114589853D01*
X133732037Y-114476627D01*
X133714641Y-114300000D01*
X133732037Y-114123373D01*
X133783557Y-113953534D01*
X133783557Y-113953533D01*
X133867221Y-113797011D01*
X133867222Y-113797009D01*
X133896552Y-113761271D01*
X133979814Y-113659814D01*
X134081271Y-113576552D01*
X134117009Y-113547222D01*
X134134913Y-113537652D01*
X134273533Y-113463557D01*
X134330147Y-113446384D01*
X134443373Y-113412037D01*
X134509557Y-113405519D01*
X134575740Y-113399000D01*
X134664260Y-113399000D01*
X134730443Y-113405519D01*
X134730443Y-113405519D01*
G37*
G36*
X117741000Y-115201000D02*
X115939000Y-115201000D01*
X115939000Y-113399000D01*
X117741000Y-113399000D01*
X117741000Y-115201000D01*
X117741000Y-115201000D01*
G37*
G36*
X119490443Y-113405519D02*
X119556627Y-113412037D01*
X119669853Y-113446384D01*
X119726467Y-113463557D01*
X119865087Y-113537652D01*
X119882991Y-113547222D01*
X119918729Y-113576552D01*
X120020186Y-113659814D01*
X120103448Y-113761271D01*
X120132778Y-113797009D01*
X120132779Y-113797011D01*
X120216443Y-113953533D01*
X120216443Y-113953534D01*
X120267963Y-114123373D01*
X120285359Y-114300000D01*
X120267963Y-114476627D01*
X120233616Y-114589853D01*
X120216443Y-114646467D01*
X120142348Y-114785087D01*
X120132778Y-114802991D01*
X120103448Y-114838729D01*
X120020186Y-114940186D01*
X119918729Y-115023448D01*
X119882991Y-115052778D01*
X119882989Y-115052779D01*
X119726467Y-115136443D01*
X119669853Y-115153616D01*
X119556627Y-115187963D01*
X119490442Y-115194482D01*
X119424260Y-115201000D01*
X119335740Y-115201000D01*
X119269558Y-115194482D01*
X119203373Y-115187963D01*
X119090147Y-115153616D01*
X119033533Y-115136443D01*
X118877011Y-115052779D01*
X118877009Y-115052778D01*
X118841271Y-115023448D01*
X118739814Y-114940186D01*
X118656552Y-114838729D01*
X118627222Y-114802991D01*
X118617652Y-114785087D01*
X118543557Y-114646467D01*
X118526384Y-114589853D01*
X118492037Y-114476627D01*
X118474641Y-114300000D01*
X118492037Y-114123373D01*
X118543557Y-113953534D01*
X118543557Y-113953533D01*
X118627221Y-113797011D01*
X118627222Y-113797009D01*
X118656552Y-113761271D01*
X118739814Y-113659814D01*
X118841271Y-113576552D01*
X118877009Y-113547222D01*
X118894913Y-113537652D01*
X119033533Y-113463557D01*
X119090147Y-113446384D01*
X119203373Y-113412037D01*
X119269557Y-113405519D01*
X119335740Y-113399000D01*
X119424260Y-113399000D01*
X119490443Y-113405519D01*
X119490443Y-113405519D01*
G37*
G36*
X116950442Y-110865518D02*
X117016627Y-110872037D01*
X117129853Y-110906384D01*
X117186467Y-110923557D01*
X117325087Y-110997652D01*
X117342991Y-111007222D01*
X117378729Y-111036552D01*
X117480186Y-111119814D01*
X117563448Y-111221271D01*
X117592778Y-111257009D01*
X117592779Y-111257011D01*
X117676443Y-111413533D01*
X117676443Y-111413534D01*
X117727963Y-111583373D01*
X117745359Y-111760000D01*
X117727963Y-111936627D01*
X117693616Y-112049853D01*
X117676443Y-112106467D01*
X117602348Y-112245087D01*
X117592778Y-112262991D01*
X117563448Y-112298729D01*
X117480186Y-112400186D01*
X117378729Y-112483448D01*
X117342991Y-112512778D01*
X117342989Y-112512779D01*
X117186467Y-112596443D01*
X117129853Y-112613616D01*
X117016627Y-112647963D01*
X116950442Y-112654482D01*
X116884260Y-112661000D01*
X116795740Y-112661000D01*
X116729558Y-112654482D01*
X116663373Y-112647963D01*
X116550147Y-112613616D01*
X116493533Y-112596443D01*
X116337011Y-112512779D01*
X116337009Y-112512778D01*
X116301271Y-112483448D01*
X116199814Y-112400186D01*
X116116552Y-112298729D01*
X116087222Y-112262991D01*
X116077652Y-112245087D01*
X116003557Y-112106467D01*
X115986384Y-112049853D01*
X115952037Y-111936627D01*
X115934641Y-111760000D01*
X115952037Y-111583373D01*
X116003557Y-111413534D01*
X116003557Y-111413533D01*
X116087221Y-111257011D01*
X116087222Y-111257009D01*
X116116552Y-111221271D01*
X116199814Y-111119814D01*
X116301271Y-111036552D01*
X116337009Y-111007222D01*
X116354913Y-110997652D01*
X116493533Y-110923557D01*
X116550147Y-110906384D01*
X116663373Y-110872037D01*
X116729558Y-110865518D01*
X116795740Y-110859000D01*
X116884260Y-110859000D01*
X116950442Y-110865518D01*
X116950442Y-110865518D01*
G37*
G36*
X119490442Y-110865518D02*
X119556627Y-110872037D01*
X119669853Y-110906384D01*
X119726467Y-110923557D01*
X119865087Y-110997652D01*
X119882991Y-111007222D01*
X119918729Y-111036552D01*
X120020186Y-111119814D01*
X120103448Y-111221271D01*
X120132778Y-111257009D01*
X120132779Y-111257011D01*
X120216443Y-111413533D01*
X120216443Y-111413534D01*
X120267963Y-111583373D01*
X120285359Y-111760000D01*
X120267963Y-111936627D01*
X120233616Y-112049853D01*
X120216443Y-112106467D01*
X120142348Y-112245087D01*
X120132778Y-112262991D01*
X120103448Y-112298729D01*
X120020186Y-112400186D01*
X119918729Y-112483448D01*
X119882991Y-112512778D01*
X119882989Y-112512779D01*
X119726467Y-112596443D01*
X119669853Y-112613616D01*
X119556627Y-112647963D01*
X119490442Y-112654482D01*
X119424260Y-112661000D01*
X119335740Y-112661000D01*
X119269558Y-112654482D01*
X119203373Y-112647963D01*
X119090147Y-112613616D01*
X119033533Y-112596443D01*
X118877011Y-112512779D01*
X118877009Y-112512778D01*
X118841271Y-112483448D01*
X118739814Y-112400186D01*
X118656552Y-112298729D01*
X118627222Y-112262991D01*
X118617652Y-112245087D01*
X118543557Y-112106467D01*
X118526384Y-112049853D01*
X118492037Y-111936627D01*
X118474641Y-111760000D01*
X118492037Y-111583373D01*
X118543557Y-111413534D01*
X118543557Y-111413533D01*
X118627221Y-111257011D01*
X118627222Y-111257009D01*
X118656552Y-111221271D01*
X118739814Y-111119814D01*
X118841271Y-111036552D01*
X118877009Y-111007222D01*
X118894913Y-110997652D01*
X119033533Y-110923557D01*
X119090147Y-110906384D01*
X119203373Y-110872037D01*
X119269558Y-110865518D01*
X119335740Y-110859000D01*
X119424260Y-110859000D01*
X119490442Y-110865518D01*
X119490442Y-110865518D01*
G37*
G36*
X134730442Y-110865518D02*
X134796627Y-110872037D01*
X134909853Y-110906384D01*
X134966467Y-110923557D01*
X135105087Y-110997652D01*
X135122991Y-111007222D01*
X135158729Y-111036552D01*
X135260186Y-111119814D01*
X135343448Y-111221271D01*
X135372778Y-111257009D01*
X135372779Y-111257011D01*
X135456443Y-111413533D01*
X135456443Y-111413534D01*
X135507963Y-111583373D01*
X135525359Y-111760000D01*
X135507963Y-111936627D01*
X135473616Y-112049853D01*
X135456443Y-112106467D01*
X135382348Y-112245087D01*
X135372778Y-112262991D01*
X135343448Y-112298729D01*
X135260186Y-112400186D01*
X135158729Y-112483448D01*
X135122991Y-112512778D01*
X135122989Y-112512779D01*
X134966467Y-112596443D01*
X134909853Y-112613616D01*
X134796627Y-112647963D01*
X134730442Y-112654482D01*
X134664260Y-112661000D01*
X134575740Y-112661000D01*
X134509558Y-112654482D01*
X134443373Y-112647963D01*
X134330147Y-112613616D01*
X134273533Y-112596443D01*
X134117011Y-112512779D01*
X134117009Y-112512778D01*
X134081271Y-112483448D01*
X133979814Y-112400186D01*
X133896552Y-112298729D01*
X133867222Y-112262991D01*
X133857652Y-112245087D01*
X133783557Y-112106467D01*
X133766384Y-112049853D01*
X133732037Y-111936627D01*
X133714641Y-111760000D01*
X133732037Y-111583373D01*
X133783557Y-111413534D01*
X133783557Y-111413533D01*
X133867221Y-111257011D01*
X133867222Y-111257009D01*
X133896552Y-111221271D01*
X133979814Y-111119814D01*
X134081271Y-111036552D01*
X134117009Y-111007222D01*
X134134913Y-110997652D01*
X134273533Y-110923557D01*
X134330147Y-110906384D01*
X134443373Y-110872037D01*
X134509558Y-110865518D01*
X134575740Y-110859000D01*
X134664260Y-110859000D01*
X134730442Y-110865518D01*
X134730442Y-110865518D01*
G37*
G36*
X137270442Y-110865518D02*
X137336627Y-110872037D01*
X137449853Y-110906384D01*
X137506467Y-110923557D01*
X137645087Y-110997652D01*
X137662991Y-111007222D01*
X137698729Y-111036552D01*
X137800186Y-111119814D01*
X137883448Y-111221271D01*
X137912778Y-111257009D01*
X137912779Y-111257011D01*
X137996443Y-111413533D01*
X137996443Y-111413534D01*
X138047963Y-111583373D01*
X138065359Y-111760000D01*
X138047963Y-111936627D01*
X138013616Y-112049853D01*
X137996443Y-112106467D01*
X137922348Y-112245087D01*
X137912778Y-112262991D01*
X137883448Y-112298729D01*
X137800186Y-112400186D01*
X137698729Y-112483448D01*
X137662991Y-112512778D01*
X137662989Y-112512779D01*
X137506467Y-112596443D01*
X137449853Y-112613616D01*
X137336627Y-112647963D01*
X137270442Y-112654482D01*
X137204260Y-112661000D01*
X137115740Y-112661000D01*
X137049558Y-112654482D01*
X136983373Y-112647963D01*
X136870147Y-112613616D01*
X136813533Y-112596443D01*
X136657011Y-112512779D01*
X136657009Y-112512778D01*
X136621271Y-112483448D01*
X136519814Y-112400186D01*
X136436552Y-112298729D01*
X136407222Y-112262991D01*
X136397652Y-112245087D01*
X136323557Y-112106467D01*
X136306384Y-112049853D01*
X136272037Y-111936627D01*
X136254641Y-111760000D01*
X136272037Y-111583373D01*
X136323557Y-111413534D01*
X136323557Y-111413533D01*
X136407221Y-111257011D01*
X136407222Y-111257009D01*
X136436552Y-111221271D01*
X136519814Y-111119814D01*
X136621271Y-111036552D01*
X136657009Y-111007222D01*
X136674913Y-110997652D01*
X136813533Y-110923557D01*
X136870147Y-110906384D01*
X136983373Y-110872037D01*
X137049558Y-110865518D01*
X137115740Y-110859000D01*
X137204260Y-110859000D01*
X137270442Y-110865518D01*
X137270442Y-110865518D01*
G37*
G36*
X134730443Y-108325519D02*
X134796627Y-108332037D01*
X134909853Y-108366384D01*
X134966467Y-108383557D01*
X135105087Y-108457652D01*
X135122991Y-108467222D01*
X135158729Y-108496552D01*
X135260186Y-108579814D01*
X135343448Y-108681271D01*
X135372778Y-108717009D01*
X135372779Y-108717011D01*
X135456443Y-108873533D01*
X135456443Y-108873534D01*
X135507963Y-109043373D01*
X135525359Y-109220000D01*
X135507963Y-109396627D01*
X135473616Y-109509853D01*
X135456443Y-109566467D01*
X135382348Y-109705087D01*
X135372778Y-109722991D01*
X135343448Y-109758729D01*
X135260186Y-109860186D01*
X135158729Y-109943448D01*
X135122991Y-109972778D01*
X135122989Y-109972779D01*
X134966467Y-110056443D01*
X134909853Y-110073616D01*
X134796627Y-110107963D01*
X134730443Y-110114481D01*
X134664260Y-110121000D01*
X134575740Y-110121000D01*
X134509557Y-110114481D01*
X134443373Y-110107963D01*
X134330147Y-110073616D01*
X134273533Y-110056443D01*
X134117011Y-109972779D01*
X134117009Y-109972778D01*
X134081271Y-109943448D01*
X133979814Y-109860186D01*
X133896552Y-109758729D01*
X133867222Y-109722991D01*
X133857652Y-109705087D01*
X133783557Y-109566467D01*
X133766384Y-109509853D01*
X133732037Y-109396627D01*
X133714641Y-109220000D01*
X133732037Y-109043373D01*
X133783557Y-108873534D01*
X133783557Y-108873533D01*
X133867221Y-108717011D01*
X133867222Y-108717009D01*
X133896552Y-108681271D01*
X133979814Y-108579814D01*
X134081271Y-108496552D01*
X134117009Y-108467222D01*
X134134913Y-108457652D01*
X134273533Y-108383557D01*
X134330147Y-108366384D01*
X134443373Y-108332037D01*
X134509557Y-108325519D01*
X134575740Y-108319000D01*
X134664260Y-108319000D01*
X134730443Y-108325519D01*
X134730443Y-108325519D01*
G37*
G36*
X138061000Y-110121000D02*
X136259000Y-110121000D01*
X136259000Y-108319000D01*
X138061000Y-108319000D01*
X138061000Y-110121000D01*
X138061000Y-110121000D01*
G37*
G36*
X119490443Y-108325519D02*
X119556627Y-108332037D01*
X119669853Y-108366384D01*
X119726467Y-108383557D01*
X119865087Y-108457652D01*
X119882991Y-108467222D01*
X119918729Y-108496552D01*
X120020186Y-108579814D01*
X120103448Y-108681271D01*
X120132778Y-108717009D01*
X120132779Y-108717011D01*
X120216443Y-108873533D01*
X120216443Y-108873534D01*
X120267963Y-109043373D01*
X120285359Y-109220000D01*
X120267963Y-109396627D01*
X120233616Y-109509853D01*
X120216443Y-109566467D01*
X120142348Y-109705087D01*
X120132778Y-109722991D01*
X120103448Y-109758729D01*
X120020186Y-109860186D01*
X119918729Y-109943448D01*
X119882991Y-109972778D01*
X119882989Y-109972779D01*
X119726467Y-110056443D01*
X119669853Y-110073616D01*
X119556627Y-110107963D01*
X119490443Y-110114481D01*
X119424260Y-110121000D01*
X119335740Y-110121000D01*
X119269557Y-110114481D01*
X119203373Y-110107963D01*
X119090147Y-110073616D01*
X119033533Y-110056443D01*
X118877011Y-109972779D01*
X118877009Y-109972778D01*
X118841271Y-109943448D01*
X118739814Y-109860186D01*
X118656552Y-109758729D01*
X118627222Y-109722991D01*
X118617652Y-109705087D01*
X118543557Y-109566467D01*
X118526384Y-109509853D01*
X118492037Y-109396627D01*
X118474641Y-109220000D01*
X118492037Y-109043373D01*
X118543557Y-108873534D01*
X118543557Y-108873533D01*
X118627221Y-108717011D01*
X118627222Y-108717009D01*
X118656552Y-108681271D01*
X118739814Y-108579814D01*
X118841271Y-108496552D01*
X118877009Y-108467222D01*
X118894913Y-108457652D01*
X119033533Y-108383557D01*
X119090147Y-108366384D01*
X119203373Y-108332037D01*
X119269557Y-108325519D01*
X119335740Y-108319000D01*
X119424260Y-108319000D01*
X119490443Y-108325519D01*
X119490443Y-108325519D01*
G37*
G36*
X116950443Y-108325519D02*
X117016627Y-108332037D01*
X117129853Y-108366384D01*
X117186467Y-108383557D01*
X117325087Y-108457652D01*
X117342991Y-108467222D01*
X117378729Y-108496552D01*
X117480186Y-108579814D01*
X117563448Y-108681271D01*
X117592778Y-108717009D01*
X117592779Y-108717011D01*
X117676443Y-108873533D01*
X117676443Y-108873534D01*
X117727963Y-109043373D01*
X117745359Y-109220000D01*
X117727963Y-109396627D01*
X117693616Y-109509853D01*
X117676443Y-109566467D01*
X117602348Y-109705087D01*
X117592778Y-109722991D01*
X117563448Y-109758729D01*
X117480186Y-109860186D01*
X117378729Y-109943448D01*
X117342991Y-109972778D01*
X117342989Y-109972779D01*
X117186467Y-110056443D01*
X117129853Y-110073616D01*
X117016627Y-110107963D01*
X116950443Y-110114481D01*
X116884260Y-110121000D01*
X116795740Y-110121000D01*
X116729557Y-110114481D01*
X116663373Y-110107963D01*
X116550147Y-110073616D01*
X116493533Y-110056443D01*
X116337011Y-109972779D01*
X116337009Y-109972778D01*
X116301271Y-109943448D01*
X116199814Y-109860186D01*
X116116552Y-109758729D01*
X116087222Y-109722991D01*
X116077652Y-109705087D01*
X116003557Y-109566467D01*
X115986384Y-109509853D01*
X115952037Y-109396627D01*
X115934641Y-109220000D01*
X115952037Y-109043373D01*
X116003557Y-108873534D01*
X116003557Y-108873533D01*
X116087221Y-108717011D01*
X116087222Y-108717009D01*
X116116552Y-108681271D01*
X116199814Y-108579814D01*
X116301271Y-108496552D01*
X116337009Y-108467222D01*
X116354913Y-108457652D01*
X116493533Y-108383557D01*
X116550147Y-108366384D01*
X116663373Y-108332037D01*
X116729557Y-108325519D01*
X116795740Y-108319000D01*
X116884260Y-108319000D01*
X116950443Y-108325519D01*
X116950443Y-108325519D01*
G37*
G36*
X134730443Y-105785519D02*
X134796627Y-105792037D01*
X134909853Y-105826384D01*
X134966467Y-105843557D01*
X135105087Y-105917652D01*
X135122991Y-105927222D01*
X135158729Y-105956552D01*
X135260186Y-106039814D01*
X135343448Y-106141271D01*
X135372778Y-106177009D01*
X135372779Y-106177011D01*
X135456443Y-106333533D01*
X135456443Y-106333534D01*
X135507963Y-106503373D01*
X135525359Y-106680000D01*
X135507963Y-106856627D01*
X135473616Y-106969853D01*
X135456443Y-107026467D01*
X135382348Y-107165087D01*
X135372778Y-107182991D01*
X135343448Y-107218729D01*
X135260186Y-107320186D01*
X135158729Y-107403448D01*
X135122991Y-107432778D01*
X135122989Y-107432779D01*
X134966467Y-107516443D01*
X134909853Y-107533616D01*
X134796627Y-107567963D01*
X134730443Y-107574481D01*
X134664260Y-107581000D01*
X134575740Y-107581000D01*
X134509557Y-107574481D01*
X134443373Y-107567963D01*
X134330147Y-107533616D01*
X134273533Y-107516443D01*
X134117011Y-107432779D01*
X134117009Y-107432778D01*
X134081271Y-107403448D01*
X133979814Y-107320186D01*
X133896552Y-107218729D01*
X133867222Y-107182991D01*
X133857652Y-107165087D01*
X133783557Y-107026467D01*
X133766384Y-106969853D01*
X133732037Y-106856627D01*
X133714641Y-106680000D01*
X133732037Y-106503373D01*
X133783557Y-106333534D01*
X133783557Y-106333533D01*
X133867221Y-106177011D01*
X133867222Y-106177009D01*
X133896552Y-106141271D01*
X133979814Y-106039814D01*
X134081271Y-105956552D01*
X134117009Y-105927222D01*
X134134913Y-105917652D01*
X134273533Y-105843557D01*
X134330147Y-105826384D01*
X134443373Y-105792037D01*
X134509557Y-105785519D01*
X134575740Y-105779000D01*
X134664260Y-105779000D01*
X134730443Y-105785519D01*
X134730443Y-105785519D01*
G37*
G36*
X119490443Y-105785519D02*
X119556627Y-105792037D01*
X119669853Y-105826384D01*
X119726467Y-105843557D01*
X119865087Y-105917652D01*
X119882991Y-105927222D01*
X119918729Y-105956552D01*
X120020186Y-106039814D01*
X120103448Y-106141271D01*
X120132778Y-106177009D01*
X120132779Y-106177011D01*
X120216443Y-106333533D01*
X120216443Y-106333534D01*
X120267963Y-106503373D01*
X120285359Y-106680000D01*
X120267963Y-106856627D01*
X120233616Y-106969853D01*
X120216443Y-107026467D01*
X120142348Y-107165087D01*
X120132778Y-107182991D01*
X120103448Y-107218729D01*
X120020186Y-107320186D01*
X119918729Y-107403448D01*
X119882991Y-107432778D01*
X119882989Y-107432779D01*
X119726467Y-107516443D01*
X119669853Y-107533616D01*
X119556627Y-107567963D01*
X119490443Y-107574481D01*
X119424260Y-107581000D01*
X119335740Y-107581000D01*
X119269557Y-107574481D01*
X119203373Y-107567963D01*
X119090147Y-107533616D01*
X119033533Y-107516443D01*
X118877011Y-107432779D01*
X118877009Y-107432778D01*
X118841271Y-107403448D01*
X118739814Y-107320186D01*
X118656552Y-107218729D01*
X118627222Y-107182991D01*
X118617652Y-107165087D01*
X118543557Y-107026467D01*
X118526384Y-106969853D01*
X118492037Y-106856627D01*
X118474641Y-106680000D01*
X118492037Y-106503373D01*
X118543557Y-106333534D01*
X118543557Y-106333533D01*
X118627221Y-106177011D01*
X118627222Y-106177009D01*
X118656552Y-106141271D01*
X118739814Y-106039814D01*
X118841271Y-105956552D01*
X118877009Y-105927222D01*
X118894913Y-105917652D01*
X119033533Y-105843557D01*
X119090147Y-105826384D01*
X119203373Y-105792037D01*
X119269557Y-105785519D01*
X119335740Y-105779000D01*
X119424260Y-105779000D01*
X119490443Y-105785519D01*
X119490443Y-105785519D01*
G37*
G36*
X119490443Y-103245519D02*
X119556627Y-103252037D01*
X119669853Y-103286384D01*
X119726467Y-103303557D01*
X119865087Y-103377652D01*
X119882991Y-103387222D01*
X119918729Y-103416552D01*
X120020186Y-103499814D01*
X120103448Y-103601271D01*
X120132778Y-103637009D01*
X120132779Y-103637011D01*
X120216443Y-103793533D01*
X120216443Y-103793534D01*
X120267963Y-103963373D01*
X120285359Y-104140000D01*
X120267963Y-104316627D01*
X120233616Y-104429853D01*
X120216443Y-104486467D01*
X120142348Y-104625087D01*
X120132778Y-104642991D01*
X120103448Y-104678729D01*
X120020186Y-104780186D01*
X119918729Y-104863448D01*
X119882991Y-104892778D01*
X119882989Y-104892779D01*
X119726467Y-104976443D01*
X119669853Y-104993616D01*
X119556627Y-105027963D01*
X119490442Y-105034482D01*
X119424260Y-105041000D01*
X119335740Y-105041000D01*
X119269557Y-105034481D01*
X119203373Y-105027963D01*
X119090147Y-104993616D01*
X119033533Y-104976443D01*
X118877011Y-104892779D01*
X118877009Y-104892778D01*
X118841271Y-104863448D01*
X118739814Y-104780186D01*
X118656552Y-104678729D01*
X118627222Y-104642991D01*
X118617652Y-104625087D01*
X118543557Y-104486467D01*
X118526384Y-104429853D01*
X118492037Y-104316627D01*
X118474641Y-104140000D01*
X118492037Y-103963373D01*
X118543557Y-103793534D01*
X118543557Y-103793533D01*
X118627221Y-103637011D01*
X118627222Y-103637009D01*
X118656552Y-103601271D01*
X118739814Y-103499814D01*
X118841271Y-103416552D01*
X118877009Y-103387222D01*
X118894913Y-103377652D01*
X119033533Y-103303557D01*
X119090147Y-103286384D01*
X119203373Y-103252037D01*
X119269558Y-103245518D01*
X119335740Y-103239000D01*
X119424260Y-103239000D01*
X119490443Y-103245519D01*
X119490443Y-103245519D01*
G37*
G36*
X135521000Y-102501000D02*
X133719000Y-102501000D01*
X133719000Y-100699000D01*
X135521000Y-100699000D01*
X135521000Y-102501000D01*
X135521000Y-102501000D01*
G37*
G36*
X119490443Y-100705519D02*
X119556627Y-100712037D01*
X119669853Y-100746384D01*
X119726467Y-100763557D01*
X119865087Y-100837652D01*
X119882991Y-100847222D01*
X119918729Y-100876552D01*
X120020186Y-100959814D01*
X120103448Y-101061271D01*
X120132778Y-101097009D01*
X120132779Y-101097011D01*
X120216443Y-101253533D01*
X120216443Y-101253534D01*
X120267963Y-101423373D01*
X120285359Y-101600000D01*
X120267963Y-101776627D01*
X120233616Y-101889853D01*
X120216443Y-101946467D01*
X120142348Y-102085087D01*
X120132778Y-102102991D01*
X120103448Y-102138729D01*
X120020186Y-102240186D01*
X119918729Y-102323448D01*
X119882991Y-102352778D01*
X119882989Y-102352779D01*
X119726467Y-102436443D01*
X119669853Y-102453616D01*
X119556627Y-102487963D01*
X119490442Y-102494482D01*
X119424260Y-102501000D01*
X119335740Y-102501000D01*
X119269558Y-102494482D01*
X119203373Y-102487963D01*
X119090147Y-102453616D01*
X119033533Y-102436443D01*
X118877011Y-102352779D01*
X118877009Y-102352778D01*
X118841271Y-102323448D01*
X118739814Y-102240186D01*
X118656552Y-102138729D01*
X118627222Y-102102991D01*
X118617652Y-102085087D01*
X118543557Y-101946467D01*
X118526384Y-101889853D01*
X118492037Y-101776627D01*
X118474641Y-101600000D01*
X118492037Y-101423373D01*
X118543557Y-101253534D01*
X118543557Y-101253533D01*
X118627221Y-101097011D01*
X118627222Y-101097009D01*
X118656552Y-101061271D01*
X118739814Y-100959814D01*
X118841271Y-100876552D01*
X118877009Y-100847222D01*
X118894913Y-100837652D01*
X119033533Y-100763557D01*
X119090147Y-100746384D01*
X119203373Y-100712037D01*
X119269557Y-100705519D01*
X119335740Y-100699000D01*
X119424260Y-100699000D01*
X119490443Y-100705519D01*
X119490443Y-100705519D01*
G37*
G36*
X119490443Y-98165519D02*
X119556627Y-98172037D01*
X119669853Y-98206384D01*
X119726467Y-98223557D01*
X119865087Y-98297652D01*
X119882991Y-98307222D01*
X119918729Y-98336552D01*
X120020186Y-98419814D01*
X120103448Y-98521271D01*
X120132778Y-98557009D01*
X120132779Y-98557011D01*
X120216443Y-98713533D01*
X120216443Y-98713534D01*
X120267963Y-98883373D01*
X120285359Y-99060000D01*
X120267963Y-99236627D01*
X120233616Y-99349853D01*
X120216443Y-99406467D01*
X120142348Y-99545087D01*
X120132778Y-99562991D01*
X120103448Y-99598729D01*
X120020186Y-99700186D01*
X119918729Y-99783448D01*
X119882991Y-99812778D01*
X119882989Y-99812779D01*
X119726467Y-99896443D01*
X119669853Y-99913616D01*
X119556627Y-99947963D01*
X119490443Y-99954481D01*
X119424260Y-99961000D01*
X119335740Y-99961000D01*
X119269557Y-99954481D01*
X119203373Y-99947963D01*
X119090147Y-99913616D01*
X119033533Y-99896443D01*
X118877011Y-99812779D01*
X118877009Y-99812778D01*
X118841271Y-99783448D01*
X118739814Y-99700186D01*
X118656552Y-99598729D01*
X118627222Y-99562991D01*
X118617652Y-99545087D01*
X118543557Y-99406467D01*
X118526384Y-99349853D01*
X118492037Y-99236627D01*
X118474641Y-99060000D01*
X118492037Y-98883373D01*
X118543557Y-98713534D01*
X118543557Y-98713533D01*
X118627221Y-98557011D01*
X118627222Y-98557009D01*
X118656552Y-98521271D01*
X118739814Y-98419814D01*
X118841271Y-98336552D01*
X118877009Y-98307222D01*
X118894913Y-98297652D01*
X119033533Y-98223557D01*
X119090147Y-98206384D01*
X119203373Y-98172037D01*
X119269557Y-98165519D01*
X119335740Y-98159000D01*
X119424260Y-98159000D01*
X119490443Y-98165519D01*
X119490443Y-98165519D01*
G37*
G36*
X138061000Y-99961000D02*
X136259000Y-99961000D01*
X136259000Y-98159000D01*
X138061000Y-98159000D01*
X138061000Y-99961000D01*
X138061000Y-99961000D01*
G37*
G36*
X135521000Y-99961000D02*
X133719000Y-99961000D01*
X133719000Y-98159000D01*
X135521000Y-98159000D01*
X135521000Y-99961000D01*
X135521000Y-99961000D01*
G37*
G36*
X119490442Y-95625518D02*
X119556627Y-95632037D01*
X119669853Y-95666384D01*
X119726467Y-95683557D01*
X119865087Y-95757652D01*
X119882991Y-95767222D01*
X119918729Y-95796552D01*
X120020186Y-95879814D01*
X120091125Y-95966255D01*
X120132778Y-96017009D01*
X120132779Y-96017011D01*
X120216443Y-96173533D01*
X120216443Y-96173534D01*
X120267963Y-96343373D01*
X120285359Y-96520000D01*
X120267963Y-96696627D01*
X120242974Y-96779004D01*
X120216443Y-96866467D01*
X120142348Y-97005087D01*
X120132778Y-97022991D01*
X120103448Y-97058729D01*
X120020186Y-97160186D01*
X119918729Y-97243448D01*
X119882991Y-97272778D01*
X119882989Y-97272779D01*
X119726467Y-97356443D01*
X119669853Y-97373616D01*
X119556627Y-97407963D01*
X119490442Y-97414482D01*
X119424260Y-97421000D01*
X119335740Y-97421000D01*
X119269558Y-97414482D01*
X119203373Y-97407963D01*
X119090147Y-97373616D01*
X119033533Y-97356443D01*
X118877011Y-97272779D01*
X118877009Y-97272778D01*
X118841271Y-97243448D01*
X118739814Y-97160186D01*
X118656552Y-97058729D01*
X118627222Y-97022991D01*
X118617652Y-97005087D01*
X118543557Y-96866467D01*
X118517026Y-96779004D01*
X118492037Y-96696627D01*
X118474641Y-96520000D01*
X118492037Y-96343373D01*
X118543557Y-96173534D01*
X118543557Y-96173533D01*
X118627221Y-96017011D01*
X118627222Y-96017009D01*
X118668875Y-95966255D01*
X118739814Y-95879814D01*
X118841271Y-95796552D01*
X118877009Y-95767222D01*
X118894913Y-95757652D01*
X119033533Y-95683557D01*
X119090147Y-95666384D01*
X119203373Y-95632037D01*
X119269558Y-95625518D01*
X119335740Y-95619000D01*
X119424260Y-95619000D01*
X119490442Y-95625518D01*
X119490442Y-95625518D01*
G37*
G36*
X135521000Y-97421000D02*
X133719000Y-97421000D01*
X133719000Y-95619000D01*
X135521000Y-95619000D01*
X135521000Y-97421000D01*
X135521000Y-97421000D01*
G37*
G36*
X129939916Y-95373344D02*
X130030375Y-95391337D01*
X130167048Y-95447949D01*
X130224031Y-95486024D01*
X130290054Y-95530139D01*
X130394654Y-95634739D01*
X130394656Y-95634742D01*
X130476844Y-95757745D01*
X130533456Y-95894418D01*
X130547745Y-95966255D01*
X130557841Y-96017009D01*
X130562316Y-96039510D01*
X130562316Y-96187444D01*
X130533456Y-96332536D01*
X130476844Y-96469209D01*
X130395762Y-96590556D01*
X130394654Y-96592215D01*
X130290054Y-96696815D01*
X130290051Y-96696817D01*
X130167048Y-96779005D01*
X130030375Y-96835617D01*
X129943320Y-96852933D01*
X129885285Y-96864477D01*
X129737347Y-96864477D01*
X129679312Y-96852933D01*
X129592257Y-96835617D01*
X129455584Y-96779005D01*
X129332581Y-96696817D01*
X129332578Y-96696815D01*
X129227978Y-96592215D01*
X129226870Y-96590556D01*
X129145788Y-96469209D01*
X129089176Y-96332536D01*
X129060316Y-96187444D01*
X129060316Y-96039510D01*
X129064792Y-96017009D01*
X129074887Y-95966255D01*
X129089176Y-95894418D01*
X129145788Y-95757745D01*
X129227976Y-95634742D01*
X129227978Y-95634739D01*
X129332578Y-95530139D01*
X129398601Y-95486024D01*
X129455584Y-95447949D01*
X129592257Y-95391337D01*
X129682716Y-95373344D01*
X129737347Y-95362477D01*
X129885285Y-95362477D01*
X129939916Y-95373344D01*
X129939916Y-95373344D01*
G37*
G36*
X124804981Y-95366099D02*
X124878538Y-95373344D01*
X125020102Y-95416287D01*
X125150568Y-95486023D01*
X125264922Y-95579871D01*
X125358770Y-95694225D01*
X125428506Y-95824691D01*
X125471449Y-95966255D01*
X125485949Y-96113477D01*
X125471449Y-96260699D01*
X125428506Y-96402263D01*
X125358770Y-96532729D01*
X125264922Y-96647083D01*
X125150568Y-96740931D01*
X125020102Y-96810667D01*
X124878538Y-96853610D01*
X124804981Y-96860855D01*
X124768204Y-96864477D01*
X124694428Y-96864477D01*
X124657651Y-96860855D01*
X124584094Y-96853610D01*
X124442530Y-96810667D01*
X124312064Y-96740931D01*
X124197710Y-96647083D01*
X124103862Y-96532729D01*
X124034126Y-96402263D01*
X123991183Y-96260699D01*
X123976683Y-96113477D01*
X123991183Y-95966255D01*
X124034126Y-95824691D01*
X124103862Y-95694225D01*
X124197710Y-95579871D01*
X124312064Y-95486023D01*
X124442530Y-95416287D01*
X124584094Y-95373344D01*
X124657651Y-95366099D01*
X124694428Y-95362477D01*
X124768204Y-95362477D01*
X124804981Y-95366099D01*
X124804981Y-95366099D01*
G37*
G36*
X120281000Y-94881000D02*
X118479000Y-94881000D01*
X118479000Y-93079000D01*
X120281000Y-93079000D01*
X120281000Y-94881000D01*
X120281000Y-94881000D01*
G37*
G36*
X129939916Y-92833344D02*
X130030375Y-92851337D01*
X130167048Y-92907949D01*
X130224031Y-92946024D01*
X130290054Y-92990139D01*
X130394654Y-93094739D01*
X130394656Y-93094742D01*
X130476844Y-93217745D01*
X130533456Y-93354418D01*
X130562316Y-93499510D01*
X130562316Y-93647444D01*
X130533456Y-93792536D01*
X130476844Y-93929209D01*
X130395762Y-94050556D01*
X130394654Y-94052215D01*
X130290054Y-94156815D01*
X130290051Y-94156817D01*
X130167048Y-94239005D01*
X130030375Y-94295617D01*
X129943320Y-94312933D01*
X129885285Y-94324477D01*
X129737347Y-94324477D01*
X129679312Y-94312933D01*
X129592257Y-94295617D01*
X129455584Y-94239005D01*
X129332581Y-94156817D01*
X129332578Y-94156815D01*
X129227978Y-94052215D01*
X129226870Y-94050556D01*
X129145788Y-93929209D01*
X129089176Y-93792536D01*
X129060316Y-93647444D01*
X129060316Y-93499510D01*
X129089176Y-93354418D01*
X129145788Y-93217745D01*
X129227976Y-93094742D01*
X129227978Y-93094739D01*
X129332578Y-92990139D01*
X129398601Y-92946024D01*
X129455584Y-92907949D01*
X129592257Y-92851337D01*
X129682716Y-92833344D01*
X129737347Y-92822477D01*
X129885285Y-92822477D01*
X129939916Y-92833344D01*
X129939916Y-92833344D01*
G37*
G36*
X124804981Y-92826099D02*
X124878538Y-92833344D01*
X125020102Y-92876287D01*
X125150568Y-92946023D01*
X125264922Y-93039871D01*
X125358770Y-93154225D01*
X125428506Y-93284691D01*
X125471449Y-93426255D01*
X125485949Y-93573477D01*
X125471449Y-93720699D01*
X125428506Y-93862263D01*
X125358770Y-93992729D01*
X125264922Y-94107083D01*
X125150568Y-94200931D01*
X125020102Y-94270667D01*
X124878538Y-94313610D01*
X124804981Y-94320855D01*
X124768204Y-94324477D01*
X124694428Y-94324477D01*
X124657651Y-94320855D01*
X124584094Y-94313610D01*
X124442530Y-94270667D01*
X124312064Y-94200931D01*
X124197710Y-94107083D01*
X124103862Y-93992729D01*
X124034126Y-93862263D01*
X123991183Y-93720699D01*
X123976683Y-93573477D01*
X123991183Y-93426255D01*
X124034126Y-93284691D01*
X124103862Y-93154225D01*
X124197710Y-93039871D01*
X124312064Y-92946023D01*
X124442530Y-92876287D01*
X124584094Y-92833344D01*
X124657651Y-92826099D01*
X124694428Y-92822477D01*
X124768204Y-92822477D01*
X124804981Y-92826099D01*
X124804981Y-92826099D01*
G37*
G36*
X117741000Y-92341000D02*
X115939000Y-92341000D01*
X115939000Y-90539000D01*
X117741000Y-90539000D01*
X117741000Y-92341000D01*
X117741000Y-92341000D01*
G37*
G36*
X129939916Y-90293344D02*
X130030375Y-90311337D01*
X130167048Y-90367949D01*
X130224031Y-90406024D01*
X130290054Y-90450139D01*
X130394654Y-90554739D01*
X130394656Y-90554742D01*
X130476844Y-90677745D01*
X130533456Y-90814418D01*
X130562316Y-90959510D01*
X130562316Y-91107444D01*
X130533456Y-91252536D01*
X130476844Y-91389209D01*
X130395762Y-91510556D01*
X130394654Y-91512215D01*
X130290054Y-91616815D01*
X130290051Y-91616817D01*
X130167048Y-91699005D01*
X130030375Y-91755617D01*
X129943320Y-91772933D01*
X129885285Y-91784477D01*
X129737347Y-91784477D01*
X129679312Y-91772933D01*
X129592257Y-91755617D01*
X129455584Y-91699005D01*
X129332581Y-91616817D01*
X129332578Y-91616815D01*
X129227978Y-91512215D01*
X129226870Y-91510556D01*
X129145788Y-91389209D01*
X129089176Y-91252536D01*
X129060316Y-91107444D01*
X129060316Y-90959510D01*
X129089176Y-90814418D01*
X129145788Y-90677745D01*
X129227976Y-90554742D01*
X129227978Y-90554739D01*
X129332578Y-90450139D01*
X129398601Y-90406024D01*
X129455584Y-90367949D01*
X129592257Y-90311337D01*
X129682716Y-90293344D01*
X129737347Y-90282477D01*
X129885285Y-90282477D01*
X129939916Y-90293344D01*
X129939916Y-90293344D01*
G37*
G36*
X124804981Y-90286099D02*
X124878538Y-90293344D01*
X125020102Y-90336287D01*
X125150568Y-90406023D01*
X125264922Y-90499871D01*
X125358770Y-90614225D01*
X125428506Y-90744691D01*
X125471449Y-90886255D01*
X125485949Y-91033477D01*
X125471449Y-91180699D01*
X125428506Y-91322263D01*
X125358770Y-91452729D01*
X125264922Y-91567083D01*
X125150568Y-91660931D01*
X125020102Y-91730667D01*
X124878538Y-91773610D01*
X124804981Y-91780855D01*
X124768204Y-91784477D01*
X124694428Y-91784477D01*
X124657651Y-91780855D01*
X124584094Y-91773610D01*
X124442530Y-91730667D01*
X124312064Y-91660931D01*
X124197710Y-91567083D01*
X124103862Y-91452729D01*
X124034126Y-91322263D01*
X123991183Y-91180699D01*
X123976683Y-91033477D01*
X123991183Y-90886255D01*
X124034126Y-90744691D01*
X124103862Y-90614225D01*
X124197710Y-90499871D01*
X124312064Y-90406023D01*
X124442530Y-90336287D01*
X124584094Y-90293344D01*
X124657651Y-90286099D01*
X124694428Y-90282477D01*
X124768204Y-90282477D01*
X124804981Y-90286099D01*
X124804981Y-90286099D01*
G37*
G36*
X129939916Y-87753344D02*
X130030375Y-87771337D01*
X130167048Y-87827949D01*
X130224031Y-87866024D01*
X130290054Y-87910139D01*
X130394654Y-88014739D01*
X130394656Y-88014742D01*
X130476844Y-88137745D01*
X130533456Y-88274418D01*
X130562316Y-88419510D01*
X130562316Y-88567444D01*
X130533456Y-88712536D01*
X130476844Y-88849209D01*
X130395762Y-88970556D01*
X130394654Y-88972215D01*
X130290054Y-89076815D01*
X130290051Y-89076817D01*
X130167048Y-89159005D01*
X130030375Y-89215617D01*
X129943320Y-89232933D01*
X129885285Y-89244477D01*
X129737347Y-89244477D01*
X129679312Y-89232933D01*
X129592257Y-89215617D01*
X129455584Y-89159005D01*
X129332581Y-89076817D01*
X129332578Y-89076815D01*
X129227978Y-88972215D01*
X129226870Y-88970556D01*
X129145788Y-88849209D01*
X129089176Y-88712536D01*
X129060316Y-88567444D01*
X129060316Y-88419510D01*
X129089176Y-88274418D01*
X129145788Y-88137745D01*
X129227976Y-88014742D01*
X129227978Y-88014739D01*
X129332578Y-87910139D01*
X129398601Y-87866024D01*
X129455584Y-87827949D01*
X129592257Y-87771337D01*
X129682716Y-87753344D01*
X129737347Y-87742477D01*
X129885285Y-87742477D01*
X129939916Y-87753344D01*
X129939916Y-87753344D01*
G37*
G36*
X124804981Y-87746099D02*
X124878538Y-87753344D01*
X125020102Y-87796287D01*
X125150568Y-87866023D01*
X125264922Y-87959871D01*
X125358770Y-88074225D01*
X125428506Y-88204691D01*
X125471449Y-88346255D01*
X125485949Y-88493477D01*
X125471449Y-88640699D01*
X125428506Y-88782263D01*
X125358770Y-88912729D01*
X125264922Y-89027083D01*
X125150568Y-89120931D01*
X125020102Y-89190667D01*
X124878538Y-89233610D01*
X124804981Y-89240855D01*
X124768204Y-89244477D01*
X124694428Y-89244477D01*
X124657651Y-89240855D01*
X124584094Y-89233610D01*
X124442530Y-89190667D01*
X124312064Y-89120931D01*
X124197710Y-89027083D01*
X124103862Y-88912729D01*
X124034126Y-88782263D01*
X123991183Y-88640699D01*
X123976683Y-88493477D01*
X123991183Y-88346255D01*
X124034126Y-88204691D01*
X124103862Y-88074225D01*
X124197710Y-87959871D01*
X124312064Y-87866023D01*
X124442530Y-87796287D01*
X124584094Y-87753344D01*
X124657651Y-87746099D01*
X124694428Y-87742477D01*
X124768204Y-87742477D01*
X124804981Y-87746099D01*
X124804981Y-87746099D01*
G37*
G36*
X120281000Y-87261000D02*
X118479000Y-87261000D01*
X118479000Y-85459000D01*
X120281000Y-85459000D01*
X120281000Y-87261000D01*
X120281000Y-87261000D01*
G37*
G36*
X117741000Y-87261000D02*
X115939000Y-87261000D01*
X115939000Y-85459000D01*
X117741000Y-85459000D01*
X117741000Y-87261000D01*
X117741000Y-87261000D01*
G37*
G36*
X135521000Y-87261000D02*
X133719000Y-87261000D01*
X133719000Y-85459000D01*
X135521000Y-85459000D01*
X135521000Y-87261000D01*
X135521000Y-87261000D01*
G37*
G36*
X134730443Y-82925519D02*
X134796627Y-82932037D01*
X134909853Y-82966384D01*
X134966467Y-82983557D01*
X135105087Y-83057652D01*
X135122991Y-83067222D01*
X135158729Y-83096552D01*
X135260186Y-83179814D01*
X135343448Y-83281271D01*
X135372778Y-83317009D01*
X135372779Y-83317011D01*
X135456443Y-83473533D01*
X135456443Y-83473534D01*
X135507963Y-83643373D01*
X135525359Y-83820000D01*
X135507963Y-83996627D01*
X135473616Y-84109853D01*
X135456443Y-84166467D01*
X135382348Y-84305087D01*
X135372778Y-84322991D01*
X135343448Y-84358729D01*
X135260186Y-84460186D01*
X135158729Y-84543448D01*
X135122991Y-84572778D01*
X135122989Y-84572779D01*
X134966467Y-84656443D01*
X134909853Y-84673616D01*
X134796627Y-84707963D01*
X134730443Y-84714481D01*
X134664260Y-84721000D01*
X134575740Y-84721000D01*
X134509557Y-84714481D01*
X134443373Y-84707963D01*
X134330147Y-84673616D01*
X134273533Y-84656443D01*
X134117011Y-84572779D01*
X134117009Y-84572778D01*
X134081271Y-84543448D01*
X133979814Y-84460186D01*
X133896552Y-84358729D01*
X133867222Y-84322991D01*
X133857652Y-84305087D01*
X133783557Y-84166467D01*
X133766384Y-84109853D01*
X133732037Y-83996627D01*
X133714641Y-83820000D01*
X133732037Y-83643373D01*
X133783557Y-83473534D01*
X133783557Y-83473533D01*
X133867221Y-83317011D01*
X133867222Y-83317009D01*
X133896552Y-83281271D01*
X133979814Y-83179814D01*
X134081271Y-83096552D01*
X134117009Y-83067222D01*
X134134913Y-83057652D01*
X134273533Y-82983557D01*
X134330147Y-82966384D01*
X134443373Y-82932037D01*
X134509557Y-82925519D01*
X134575740Y-82919000D01*
X134664260Y-82919000D01*
X134730443Y-82925519D01*
X134730443Y-82925519D01*
G37*
G36*
X136791000Y-75831000D02*
X134989000Y-75831000D01*
X134989000Y-74029000D01*
X136791000Y-74029000D01*
X136791000Y-75831000D01*
X136791000Y-75831000D01*
G37*
G36*
X139331000Y-75831000D02*
X137529000Y-75831000D01*
X137529000Y-74029000D01*
X139331000Y-74029000D01*
X139331000Y-75831000D01*
X139331000Y-75831000D01*
G37*
G36*
X124570442Y-70225518D02*
X124636627Y-70232037D01*
X124749853Y-70266384D01*
X124806467Y-70283557D01*
X124945087Y-70357652D01*
X124962991Y-70367222D01*
X124998729Y-70396552D01*
X125100186Y-70479814D01*
X125183448Y-70581271D01*
X125212778Y-70617009D01*
X125212779Y-70617011D01*
X125296443Y-70773533D01*
X125296443Y-70773534D01*
X125347963Y-70943373D01*
X125365359Y-71120000D01*
X125347963Y-71296627D01*
X125313616Y-71409853D01*
X125296443Y-71466467D01*
X125222348Y-71605087D01*
X125212778Y-71622991D01*
X125183448Y-71658729D01*
X125100186Y-71760186D01*
X124998729Y-71843448D01*
X124962991Y-71872778D01*
X124962989Y-71872779D01*
X124806467Y-71956443D01*
X124749853Y-71973616D01*
X124636627Y-72007963D01*
X124570443Y-72014481D01*
X124504260Y-72021000D01*
X124415740Y-72021000D01*
X124349557Y-72014481D01*
X124283373Y-72007963D01*
X124170147Y-71973616D01*
X124113533Y-71956443D01*
X123957011Y-71872779D01*
X123957009Y-71872778D01*
X123921271Y-71843448D01*
X123819814Y-71760186D01*
X123736552Y-71658729D01*
X123707222Y-71622991D01*
X123697652Y-71605087D01*
X123623557Y-71466467D01*
X123606384Y-71409853D01*
X123572037Y-71296627D01*
X123554641Y-71120000D01*
X123572037Y-70943373D01*
X123623557Y-70773534D01*
X123623557Y-70773533D01*
X123707221Y-70617011D01*
X123707222Y-70617009D01*
X123736552Y-70581271D01*
X123819814Y-70479814D01*
X123921271Y-70396552D01*
X123957009Y-70367222D01*
X123974913Y-70357652D01*
X124113533Y-70283557D01*
X124170147Y-70266384D01*
X124283373Y-70232037D01*
X124349558Y-70225518D01*
X124415740Y-70219000D01*
X124504260Y-70219000D01*
X124570442Y-70225518D01*
X124570442Y-70225518D01*
G37*
G36*
X136791000Y-72021000D02*
X134989000Y-72021000D01*
X134989000Y-70219000D01*
X136791000Y-70219000D01*
X136791000Y-72021000D01*
X136791000Y-72021000D01*
G37*
G36*
X139331000Y-72021000D02*
X137529000Y-72021000D01*
X137529000Y-70219000D01*
X139331000Y-70219000D01*
X139331000Y-72021000D01*
X139331000Y-72021000D01*
G37*
G36*
X132190442Y-70225518D02*
X132256627Y-70232037D01*
X132369853Y-70266384D01*
X132426467Y-70283557D01*
X132565087Y-70357652D01*
X132582991Y-70367222D01*
X132618729Y-70396552D01*
X132720186Y-70479814D01*
X132803448Y-70581271D01*
X132832778Y-70617009D01*
X132832779Y-70617011D01*
X132916443Y-70773533D01*
X132916443Y-70773534D01*
X132967963Y-70943373D01*
X132985359Y-71120000D01*
X132967963Y-71296627D01*
X132933616Y-71409853D01*
X132916443Y-71466467D01*
X132842348Y-71605087D01*
X132832778Y-71622991D01*
X132803448Y-71658729D01*
X132720186Y-71760186D01*
X132618729Y-71843448D01*
X132582991Y-71872778D01*
X132582989Y-71872779D01*
X132426467Y-71956443D01*
X132369853Y-71973616D01*
X132256627Y-72007963D01*
X132190443Y-72014481D01*
X132124260Y-72021000D01*
X132035740Y-72021000D01*
X131969557Y-72014481D01*
X131903373Y-72007963D01*
X131790147Y-71973616D01*
X131733533Y-71956443D01*
X131577011Y-71872779D01*
X131577009Y-71872778D01*
X131541271Y-71843448D01*
X131439814Y-71760186D01*
X131356552Y-71658729D01*
X131327222Y-71622991D01*
X131317652Y-71605087D01*
X131243557Y-71466467D01*
X131226384Y-71409853D01*
X131192037Y-71296627D01*
X131174641Y-71120000D01*
X131192037Y-70943373D01*
X131243557Y-70773534D01*
X131243557Y-70773533D01*
X131327221Y-70617011D01*
X131327222Y-70617009D01*
X131356552Y-70581271D01*
X131439814Y-70479814D01*
X131541271Y-70396552D01*
X131577009Y-70367222D01*
X131594913Y-70357652D01*
X131733533Y-70283557D01*
X131790147Y-70266384D01*
X131903373Y-70232037D01*
X131969558Y-70225518D01*
X132035740Y-70219000D01*
X132124260Y-70219000D01*
X132190442Y-70225518D01*
X132190442Y-70225518D01*
G37*
G36*
X129650442Y-70225518D02*
X129716627Y-70232037D01*
X129829853Y-70266384D01*
X129886467Y-70283557D01*
X130025087Y-70357652D01*
X130042991Y-70367222D01*
X130078729Y-70396552D01*
X130180186Y-70479814D01*
X130263448Y-70581271D01*
X130292778Y-70617009D01*
X130292779Y-70617011D01*
X130376443Y-70773533D01*
X130376443Y-70773534D01*
X130427963Y-70943373D01*
X130445359Y-71120000D01*
X130427963Y-71296627D01*
X130393616Y-71409853D01*
X130376443Y-71466467D01*
X130302348Y-71605087D01*
X130292778Y-71622991D01*
X130263448Y-71658729D01*
X130180186Y-71760186D01*
X130078729Y-71843448D01*
X130042991Y-71872778D01*
X130042989Y-71872779D01*
X129886467Y-71956443D01*
X129829853Y-71973616D01*
X129716627Y-72007963D01*
X129650443Y-72014481D01*
X129584260Y-72021000D01*
X129495740Y-72021000D01*
X129429557Y-72014481D01*
X129363373Y-72007963D01*
X129250147Y-71973616D01*
X129193533Y-71956443D01*
X129037011Y-71872779D01*
X129037009Y-71872778D01*
X129001271Y-71843448D01*
X128899814Y-71760186D01*
X128816552Y-71658729D01*
X128787222Y-71622991D01*
X128777652Y-71605087D01*
X128703557Y-71466467D01*
X128686384Y-71409853D01*
X128652037Y-71296627D01*
X128634641Y-71120000D01*
X128652037Y-70943373D01*
X128703557Y-70773534D01*
X128703557Y-70773533D01*
X128787221Y-70617011D01*
X128787222Y-70617009D01*
X128816552Y-70581271D01*
X128899814Y-70479814D01*
X129001271Y-70396552D01*
X129037009Y-70367222D01*
X129054913Y-70357652D01*
X129193533Y-70283557D01*
X129250147Y-70266384D01*
X129363373Y-70232037D01*
X129429558Y-70225518D01*
X129495740Y-70219000D01*
X129584260Y-70219000D01*
X129650442Y-70225518D01*
X129650442Y-70225518D01*
G37*
G36*
X127110442Y-70225518D02*
X127176627Y-70232037D01*
X127289853Y-70266384D01*
X127346467Y-70283557D01*
X127485087Y-70357652D01*
X127502991Y-70367222D01*
X127538729Y-70396552D01*
X127640186Y-70479814D01*
X127723448Y-70581271D01*
X127752778Y-70617009D01*
X127752779Y-70617011D01*
X127836443Y-70773533D01*
X127836443Y-70773534D01*
X127887963Y-70943373D01*
X127905359Y-71120000D01*
X127887963Y-71296627D01*
X127853616Y-71409853D01*
X127836443Y-71466467D01*
X127762348Y-71605087D01*
X127752778Y-71622991D01*
X127723448Y-71658729D01*
X127640186Y-71760186D01*
X127538729Y-71843448D01*
X127502991Y-71872778D01*
X127502989Y-71872779D01*
X127346467Y-71956443D01*
X127289853Y-71973616D01*
X127176627Y-72007963D01*
X127110443Y-72014481D01*
X127044260Y-72021000D01*
X126955740Y-72021000D01*
X126889557Y-72014481D01*
X126823373Y-72007963D01*
X126710147Y-71973616D01*
X126653533Y-71956443D01*
X126497011Y-71872779D01*
X126497009Y-71872778D01*
X126461271Y-71843448D01*
X126359814Y-71760186D01*
X126276552Y-71658729D01*
X126247222Y-71622991D01*
X126237652Y-71605087D01*
X126163557Y-71466467D01*
X126146384Y-71409853D01*
X126112037Y-71296627D01*
X126094641Y-71120000D01*
X126112037Y-70943373D01*
X126163557Y-70773534D01*
X126163557Y-70773533D01*
X126247221Y-70617011D01*
X126247222Y-70617009D01*
X126276552Y-70581271D01*
X126359814Y-70479814D01*
X126461271Y-70396552D01*
X126497009Y-70367222D01*
X126514913Y-70357652D01*
X126653533Y-70283557D01*
X126710147Y-70266384D01*
X126823373Y-70232037D01*
X126889558Y-70225518D01*
X126955740Y-70219000D01*
X127044260Y-70219000D01*
X127110442Y-70225518D01*
X127110442Y-70225518D01*
G37*
G36*
X122821000Y-72021000D02*
X121019000Y-72021000D01*
X121019000Y-70219000D01*
X122821000Y-70219000D01*
X122821000Y-72021000D01*
X122821000Y-72021000D01*
G37*
G36*
X117741000Y-72021000D02*
X115939000Y-72021000D01*
X115939000Y-70219000D01*
X117741000Y-70219000D01*
X117741000Y-72021000D01*
X117741000Y-72021000D01*
G37*
G36*
X119490442Y-70225518D02*
X119556627Y-70232037D01*
X119669853Y-70266384D01*
X119726467Y-70283557D01*
X119865087Y-70357652D01*
X119882991Y-70367222D01*
X119918729Y-70396552D01*
X120020186Y-70479814D01*
X120103448Y-70581271D01*
X120132778Y-70617009D01*
X120132779Y-70617011D01*
X120216443Y-70773533D01*
X120216443Y-70773534D01*
X120267963Y-70943373D01*
X120285359Y-71120000D01*
X120267963Y-71296627D01*
X120233616Y-71409853D01*
X120216443Y-71466467D01*
X120142348Y-71605087D01*
X120132778Y-71622991D01*
X120103448Y-71658729D01*
X120020186Y-71760186D01*
X119918729Y-71843448D01*
X119882991Y-71872778D01*
X119882989Y-71872779D01*
X119726467Y-71956443D01*
X119669853Y-71973616D01*
X119556627Y-72007963D01*
X119490443Y-72014481D01*
X119424260Y-72021000D01*
X119335740Y-72021000D01*
X119269557Y-72014481D01*
X119203373Y-72007963D01*
X119090147Y-71973616D01*
X119033533Y-71956443D01*
X118877011Y-71872779D01*
X118877009Y-71872778D01*
X118841271Y-71843448D01*
X118739814Y-71760186D01*
X118656552Y-71658729D01*
X118627222Y-71622991D01*
X118617652Y-71605087D01*
X118543557Y-71466467D01*
X118526384Y-71409853D01*
X118492037Y-71296627D01*
X118474641Y-71120000D01*
X118492037Y-70943373D01*
X118543557Y-70773534D01*
X118543557Y-70773533D01*
X118627221Y-70617011D01*
X118627222Y-70617009D01*
X118656552Y-70581271D01*
X118739814Y-70479814D01*
X118841271Y-70396552D01*
X118877009Y-70367222D01*
X118894913Y-70357652D01*
X119033533Y-70283557D01*
X119090147Y-70266384D01*
X119203373Y-70232037D01*
X119269558Y-70225518D01*
X119335740Y-70219000D01*
X119424260Y-70219000D01*
X119490442Y-70225518D01*
X119490442Y-70225518D01*
G37*
M02*
